<svg xmlns="http://www.w3.org/2000/svg" viewBox="0 0 1200 675" role="img" aria-labelledby="title desc">
  <title id="title">AI and machine learning lecture cover</title>
  <desc id="desc">A restrained abstract illustration of connected AI nodes above a laptop-like frame.</desc>
  <defs>
    <linearGradient id="bg" x1="0" x2="1" y1="0" y2="1">
      <stop offset="0" stop-color="#fffdf8"/>
      <stop offset="1" stop-color="#ece6da"/>
    </linearGradient>
    <linearGradient id="accent" x1="0" x2="1" y1="0" y2="0">
      <stop offset="0" stop-color="#0f5f5c"/>
      <stop offset="1" stop-color="#b9893d"/>
    </linearGradient>
    <filter id="softShadow" x="-20%" y="-20%" width="140%" height="140%">
      <feDropShadow dx="0" dy="18" stdDeviation="18" flood-color="#232623" flood-opacity="0.12"/>
    </filter>
  </defs>
  <rect width="1200" height="675" fill="url(#bg)"/>
  <circle cx="1030" cy="110" r="180" fill="#0f5f5c" opacity="0.06"/>
  <circle cx="145" cy="560" r="210" fill="#b9893d" opacity="0.07"/>
  <g fill="none" stroke="#ddd8ce" stroke-width="2" opacity="0.65">
    <path d="M130 170H1070"/>
    <path d="M130 315H1070"/>
    <path d="M130 460H1070"/>
    <path d="M250 92V590"/>
    <path d="M480 92V590"/>
    <path d="M720 92V590"/>
    <path d="M950 92V590"/>
  </g>
  <g filter="url(#softShadow)">
    <rect x="314" y="366" width="572" height="134" rx="18" fill="#fffdf8" stroke="#c7c0b5" stroke-width="2"/>
    <rect x="352" y="401" width="496" height="54" rx="10" fill="#f7f5f0" stroke="#ddd8ce"/>
    <path d="M286 524H914L874 568H326Z" fill="#ffffff" stroke="#c7c0b5" stroke-width="2"/>
  </g>
  <g stroke="url(#accent)" stroke-width="5" stroke-linecap="round" opacity="0.9">
    <path d="M358 281L468 204L598 260L733 172L846 243"/>
    <path d="M468 204L502 321L598 260L642 346L733 172"/>
  </g>
  <g>
    <circle cx="358" cy="281" r="18" fill="#0f5f5c"/>
    <circle cx="468" cy="204" r="22" fill="#345b9d"/>
    <circle cx="598" cy="260" r="26" fill="#fffdf8" stroke="#0f5f5c" stroke-width="6"/>
    <circle cx="733" cy="172" r="22" fill="#b9893d"/>
    <circle cx="846" cy="243" r="18" fill="#8a4b38"/>
    <circle cx="502" cy="321" r="14" fill="#4f7357"/>
    <circle cx="642" cy="346" r="14" fill="#0f5f5c"/>
  </g>
</svg>
