<svg xmlns="http://www.w3.org/2000/svg" viewBox="0 0 1200 675" role="img" aria-labelledby="title desc">
  <title id="title">Trustworthy AI research presentation cover</title>
  <desc id="desc">A professional abstract illustration of robustness verification paths around a shield.</desc>
  <defs>
    <linearGradient id="bg" x1="0" x2="1" y1="0" y2="1">
      <stop offset="0" stop-color="#fffdf8"/>
      <stop offset="1" stop-color="#eee7df"/>
    </linearGradient>
    <linearGradient id="shield" x1="0" x2="1" y1="0" y2="1">
      <stop offset="0" stop-color="#0f5f5c"/>
      <stop offset="1" stop-color="#345b9d"/>
    </linearGradient>
    <linearGradient id="line" x1="0" x2="1" y1="0" y2="0">
      <stop offset="0" stop-color="#8a4b38"/>
      <stop offset="0.5" stop-color="#0f5f5c"/>
      <stop offset="1" stop-color="#b9893d"/>
    </linearGradient>
    <filter id="shadow" x="-25%" y="-25%" width="150%" height="150%">
      <feDropShadow dx="0" dy="18" stdDeviation="20" flood-color="#232623" flood-opacity="0.12"/>
    </filter>
  </defs>
  <rect width="1200" height="675" fill="url(#bg)"/>
  <circle cx="607" cy="334" r="254" fill="#0f5f5c" opacity="0.045"/>
  <circle cx="607" cy="334" r="174" fill="#345b9d" opacity="0.04"/>
  <g fill="none" stroke="#ddd8ce" stroke-width="2" opacity="0.72">
    <path d="M176 184H1024"/>
    <path d="M176 490H1024"/>
    <path d="M294 92V592"/>
    <path d="M906 92V592"/>
  </g>
  <g filter="url(#shadow)">
    <path d="M600 150L778 222V348C778 452 704 527 600 565C496 527 422 452 422 348V222Z" fill="#fffdf8" stroke="#c7c0b5" stroke-width="3"/>
    <path d="M600 190L736 245V350C736 426 684 486 600 520C516 486 464 426 464 350V245Z" fill="url(#shield)" opacity="0.92"/>
  </g>
  <path d="M522 352L577 407L690 284" fill="none" stroke="#fffdf8" stroke-width="24" stroke-linecap="round" stroke-linejoin="round"/>
  <g fill="none" stroke="url(#line)" stroke-width="5" stroke-linecap="round">
    <path d="M194 316C292 258 376 258 474 316"/>
    <path d="M726 316C824 258 908 258 1006 316"/>
    <path d="M194 420C313 454 381 446 472 398"/>
    <path d="M728 398C819 446 887 454 1006 420"/>
  </g>
  <g fill="#fffdf8" stroke-width="5">
    <circle cx="194" cy="316" r="18" stroke="#8a4b38"/>
    <circle cx="474" cy="316" r="18" stroke="#0f5f5c"/>
    <circle cx="726" cy="316" r="18" stroke="#0f5f5c"/>
    <circle cx="1006" cy="316" r="18" stroke="#b9893d"/>
    <circle cx="194" cy="420" r="15" stroke="#345b9d"/>
    <circle cx="472" cy="398" r="15" stroke="#0f5f5c"/>
    <circle cx="728" cy="398" r="15" stroke="#0f5f5c"/>
    <circle cx="1006" cy="420" r="15" stroke="#8a4b38"/>
  </g>
</svg>
