<svg xmlns="http://www.w3.org/2000/svg" viewBox="0 0 1200 675" role="img" aria-labelledby="title desc">
  <title id="title">Deep learning workshop cover</title>
  <desc id="desc">A subtle abstract illustration of layered neural network panels and signal paths.</desc>
  <defs>
    <linearGradient id="bg" x1="0" x2="1" y1="0" y2="1">
      <stop offset="0" stop-color="#fffdf8"/>
      <stop offset="1" stop-color="#edf1ed"/>
    </linearGradient>
    <linearGradient id="panel" x1="0" x2="1" y1="0" y2="1">
      <stop offset="0" stop-color="#ffffff"/>
      <stop offset="1" stop-color="#f2eee6"/>
    </linearGradient>
    <linearGradient id="signal" x1="0" x2="1" y1="0" y2="0">
      <stop offset="0" stop-color="#345b9d"/>
      <stop offset="0.52" stop-color="#0f5f5c"/>
      <stop offset="1" stop-color="#b9893d"/>
    </linearGradient>
    <filter id="shadow" x="-25%" y="-25%" width="150%" height="150%">
      <feDropShadow dx="0" dy="16" stdDeviation="18" flood-color="#232623" flood-opacity="0.11"/>
    </filter>
  </defs>
  <rect width="1200" height="675" fill="url(#bg)"/>
  <path d="M0 520C185 470 275 615 452 557C635 496 741 395 937 458C1077 503 1134 450 1200 415V675H0Z" fill="#0f5f5c" opacity="0.055"/>
  <g filter="url(#shadow)">
    <rect x="178" y="152" width="224" height="372" rx="22" fill="url(#panel)" stroke="#ddd8ce" stroke-width="2"/>
    <rect x="488" y="116" width="224" height="444" rx="22" fill="url(#panel)" stroke="#c7c0b5" stroke-width="2"/>
    <rect x="798" y="152" width="224" height="372" rx="22" fill="url(#panel)" stroke="#ddd8ce" stroke-width="2"/>
  </g>
  <g fill="#fffdf8" stroke-width="5">
    <circle cx="290" cy="232" r="19" stroke="#345b9d"/>
    <circle cx="290" cy="338" r="19" stroke="#0f5f5c"/>
    <circle cx="290" cy="444" r="19" stroke="#b9893d"/>
    <circle cx="600" cy="196" r="19" stroke="#345b9d"/>
    <circle cx="600" cy="286" r="19" stroke="#0f5f5c"/>
    <circle cx="600" cy="376" r="19" stroke="#4f7357"/>
    <circle cx="600" cy="466" r="19" stroke="#b9893d"/>
    <circle cx="910" cy="248" r="19" stroke="#345b9d"/>
    <circle cx="910" cy="338" r="19" stroke="#0f5f5c"/>
    <circle cx="910" cy="428" r="19" stroke="#8a4b38"/>
  </g>
  <g fill="none" stroke="url(#signal)" stroke-width="4" stroke-linecap="round" opacity="0.72">
    <path d="M309 232L581 196"/>
    <path d="M309 232L581 286"/>
    <path d="M309 338L581 286"/>
    <path d="M309 338L581 376"/>
    <path d="M309 444L581 376"/>
    <path d="M309 444L581 466"/>
    <path d="M619 196L891 248"/>
    <path d="M619 286L891 248"/>
    <path d="M619 286L891 338"/>
    <path d="M619 376L891 338"/>
    <path d="M619 376L891 428"/>
    <path d="M619 466L891 428"/>
  </g>
  <rect x="236" y="562" width="728" height="8" rx="4" fill="url(#signal)" opacity="0.55"/>
</svg>
